#!OML:ASF F:\VICON\USERDATA\INSTALL\rory3\rory3.ASF
:FULLY-SPECIFIED
:DEGREES
64
root 1.052053219308677 17.861431618334286 39.104214220126565 -3.6464378623688507 -0.5770924043091195 -4.988266684314989
lfemur -12.782208091837049 -2.6720788228422148 -17.624589094987503
ltibia 26.462649041317295
lfoot -5.6566954534682905 -3.3390139306007853
ltoes -7.026851449116194
rfemur -10.111541612105219 3.733864910909388 27.909516503414117
rtibia 51.09168329461913
rfoot -5.210444233714737 -7.147668307843403
rtoes 6.821132701673159
lowerback 1.0 0.8766063073860967 3.451842794055617
upperback 0.10465779965950808 1.9427041565072911 1.5410963679397365
thorax -5.000305200831729 0.9161591754692909 -0.900316087562032
lowerneck -15.751729168598121 -3.3104126843224098 -1.5008347552670003
upperneck 23.118140087010744 -4.4376642409527385 0.6205051604830395
head 10.212693402811993 -2.080413424602397 -0.11619859147821038
lclavicle -1.915344589510994e-15 -2.2054087104149656e-16
lhumerus -29.280258704548164 0.9916872379627302 81.89537421329315
lradius 27.082953182149556
lwrist 4.9326074563439715
lhand -27.166746844659393 23.903544333689535
lfingers nan
lthumb -0.24001922904592976 54.43608378803963
rclavicle -1.8804935236665987e-15 -1.8884838175181567e-16
rhumerus -27.42333127619971 -19.142988067984536 -75.54987528669517
rradius 31.13465041712042
rwrist 4.158283168689886
rhand -18.36226800442324 1.0
rfingers nan
rthumb 8.350849115963172 -7.943181371148142
65
root 1.0900626546805219 17.883953110052925 40.45832157014101 -3.332218490346298 -0.1021430180837728 -4.684277443308038
lfemur -11.329959586379562 -3.2013873713831504 -18.551664180160206
ltibia 26.545553506740525
lfoot -5.154045579089914 -3.29029612961775
ltoes -6.66058957694967
rfemur -12.810173741205316 2.8009773527207114 26.555049432544596
rtibia 53.94791823425797
rfoot -5.419902944047578 -6.148983792301181
rtoes 6.903864492879222
lowerback 1.0 0.6436181443990276 3.213633980289453
upperback 0.059053300074667164 1.5607363123423403 1.4677080403127944
thorax -5.105068309141131 0.7307315095688447 -0.6980738858577613
lowerneck -15.829098988528191 -3.2949038671501296 -1.4701742444097108
upperneck 22.965801598228015 -4.415413263680793 0.7068753560778785
head 10.164744243089938 -2.0661416310457508 -0.07776446672998412
lclavicle -1.912135503581117e-15 -2.1722056122254e-16
lhumerus -28.380973117674834 0.7290950263714859 81.72841516782408
lradius 27.471527293965703
lwrist 4.133405194934584
lhand -27.14595385989087 23.960263637970996
lfingers nan
lthumb -0.26931076667173504 54.354524985155486
rclavicle -1.8800329175282505e-15 -1.8795511130186686e-16
rhumerus -27.93301057206498 -19.506152118193086 -76.63170072057049
rradius 30.73564972328394
rwrist 4.045560846503081
rhand -18.31833937136875 1.0
rfingers nan
rthumb 8.412082102743039 -7.895871729950727
66
root 1.1179483562404444 17.887980612454196 41.757034495402536 -3.5203739447546285 0.11446372882862077 -2.0417694452201234
lfemur -8.808911053952896 -3.7763381275819117 -21.695229486248294
ltibia 26.336673213144792
lfoot -5.45405048415031 -4.2631574445018945
ltoes -4.637706204357016
rfemur -16.25488163742535 1.5320638469354253 22.831406217939964
rtibia 56.60277298367885
rfoot -5.715768468109097 -5.2908863847206415
rtoes 6.6543157828699755
lowerback 1.0 0.24717253540718567 1.003725467746127
upperback 0.12749492222941847 0.5848556067450946 1.0272436614093154
thorax -5.152973023824614 0.29823716823389396 0.16827249923558052
lowerneck -15.939743367613957 -3.254024997764666 -1.4300144338985774
upperneck 22.89198071127376 -4.346570430316927 0.7572130285659748
head 10.17225542658362 -2.037616342982128 -0.04769432671024347
lclavicle -1.9111451606251068e-15 -2.153208103029113e-16
lhumerus -27.558046531098952 0.3905870177116624 81.59916407497144
lradius 27.783732270090002
lwrist 3.5125399950336207
lhand -27.16434493790489 24.002521790593047
lfingers nan
lthumb -0.2099373022709441 54.47790212571312
rclavicle -1.881361338307959e-15 -1.882310860625871e-16
rhumerus -28.53709503815265 -20.194396022064254 -77.60581806473246
rradius 30.294197426576275
rwrist 3.8426523608700154
rhand -18.351913853058683 1.0
rfingers nan
rthumb 8.387808999133563 -7.980441129165626
67
root 1.142858740001547 17.87842233595146 42.54531868451889 -3.7571132338465993 0.2193895031127142 0.8777585304472661
lfemur -5.504525250411984 -4.356934730562108 -24.924268965599925
ltibia 25.504973054713588
lfoot -5.604495402641844 -4.483160583587438
ltoes -4.597522033668334
rfemur -19.840497799500746 0.14471302835955058 18.964843703920824
rtibia 58.47889757993728
rfoot -6.150151202994535 -4.360366852885308
rtoes 6.148936203883181
lowerback 1.0 -0.012463851427946482 -1.303471053368245
upperback 0.2925844989772576 -0.1743531450390403 0.5431726637079342
thorax -5.07271539160152 -0.05655726203789074 1.0804743564705273
lowerneck -16.029347340286584 -3.183696732450751 -1.4015800994897671
upperneck 22.81438188553252 -4.222311904330369 0.7780879728909278
head 10.190458351149623 -1.9919885004403555 -0.018291811364205823
lclavicle -1.919283728316513e-15 -2.1818840046769815e-16
lhumerus -26.837979608509553 -0.08843151061187315 81.49748443116911
lradius 27.99382117988549
lwrist 3.297033063379218
lhand -27.1576733168764 24.156748100786302
lfingers nan
lthumb -0.30291867522951166 54.388716150067296
rclavicle -1.8913575667986227e-15 -1.936649898829379e-16
rhumerus -29.241267303348508 -21.054422472222885 -78.38453965300634
rradius 29.891030415998213
rwrist 3.5849869185805874
rhand -18.330850826692323 1.0
rfingers nan
rthumb 8.446625184182805 -7.891292882223179
